                <svg width="30" height="30" viewBox="0 0 81 78" fill="none" xmlns="http://www.w3.org/2000/svg">
                    <path
                        d="M59.1861 21.531H59.2196M24.0992 7.05048H57.5153C66.743 7.05048 74.2234 14.254 74.2234 23.1399V55.3188C74.2234 64.2047 66.743 71.4082 57.5153 71.4082H24.0992C14.8716 71.4082 7.39111 64.2047 7.39111 55.3188V23.1399C7.39111 14.254 14.8716 7.05048 24.0992 7.05048ZM54.1737 37.2021C54.5861 39.8801 54.1111 42.6152 52.8162 45.0184C51.5214 47.4215 49.4726 49.3702 46.9613 50.5874C44.45 51.8046 41.6041 52.2283 38.8283 51.7982C36.0526 51.3681 33.4883 50.1061 31.5003 48.1917C29.5123 46.2773 28.2018 43.808 27.7551 41.135C27.3085 38.462 27.7485 35.7215 29.0125 33.3032C30.2765 30.8849 32.3001 28.912 34.7956 27.665C37.2912 26.4181 40.1314 25.9607 42.9125 26.3578C45.7493 26.7629 48.3755 28.0358 50.4034 29.9885C52.4312 31.9413 53.7531 34.4703 54.1737 37.2021Z"
                        stroke="white" stroke-width="4" stroke-linecap="round" stroke-linejoin="round" />
                </svg>